<?xml version="1.0" encoding="UTF-8" standalone="no"?>
<!-- Created with (https://www.ozhuyesu.com/) -->

<svg
   version="1.1"
   id="svg1"
   width="591.61206"
   height="591.61206"
   viewBox="0 0 591.61206 591.61206"
   xmlns="http://www.w3.org/2000/svg"
   xmlns:svg="http://www.w3.org/2000/svg">
  <defs
     id="defs1" />
  <g
     id="g1"
     transform="translate(-23.393612,-17.736965)">
    <a
       id="a1"
       style="stroke:#000000;stroke-opacity:1"
       transform="translate(0.76567272,-10.719418)">
      <path
         id="path4"
         style="display:inline;fill:#0d67d9;fill-opacity:1;stroke:none;stroke-opacity:1"
         d="m 322.48042,58.936215 c -7.20084,0 -9.58005,0.300859 -9.28906,1.173828 0.21515,0.645436 1.43985,1.420574 2.7207,1.722656 2.05407,0.48444 2.41799,1.272218 3.08789,6.671875 0.41773,3.367062 0.53267,6.712242 0.25586,7.433594 -0.38637,1.00688 -2.57071,1.247226 -9.40039,1.035156 l -8.89453,-0.27539 -0.2832,-6.976563 -0.28321,-6.974609 2.92383,-0.585938 c 1.70394,-0.340788 2.92188,-1.186408 2.92188,-2.029297 0,-1.136267 -0.76996,-1.319273 -3.59961,-0.851562 -1.98,0.327274 -6.29961,0.601622 -9.59961,0.607422 -6.22049,0.01095 -7.95058,1.231482 -3.3711,2.380859 1.44671,0.363102 2.95251,1.167018 3.34571,1.785156 0.39321,0.618138 0.72247,7.840382 0.73047,16.050782 0.0152,15.477465 -0.39982,17.232402 -4.07422,17.232422 -0.98156,0 -1.51773,0.432937 -1.19141,0.960937 0.65678,1.06269 11.01868,1.299389 15.71875,0.359375 3.70666,-0.741333 3.89967,-2.0499 0.36133,-2.457031 -2.61709,-0.301129 -2.64292,-0.372271 -2.91992,-8.259766 l -0.2793,-7.957031 8.91992,0.277344 8.91797,0.277343 0.28125,7.455079 0.28125,7.455078 -2.92187,0.583984 c -1.60637,0.321273 -2.91993,0.977865 -2.91993,1.458984 0,1.196217 18.18892,0.571598 18.48438,-0.634765 0.12932,-0.528 -0.89372,-1.089904 -2.27344,-1.25 -2.31914,-0.269102 -2.55389,-0.73264 -3.11914,-6.140625 -0.77658,-7.43003 -0.7959,-25.092115 -0.0293,-27.089844 0.32049,-0.835183 1.61735,-1.519531 2.88086,-1.519531 1.26351,0 2.29688,-0.430985 2.29688,-0.958985 0,-0.576529 -3.86636,-0.960937 -9.67969,-0.960937 z m 23.04883,1.035156 c -1.98729,-0.08271 -2.80859,0.215837 -2.80859,0.884766 0,0.528 0.87664,0.960937 1.94921,0.960937 2.84956,0 3.25923,2.171963 1.95899,10.404297 -0.63899,4.045728 -1.58729,10.085425 -2.10547,13.421875 -1.45371,9.360092 -2.19758,10.734375 -5.8125,10.734375 -5.29567,0 -1.76618,1.659255 6.96484,3.275391 4.52915,0.838358 8.52406,1.523438 8.87891,1.523438 1.45735,0 0.49972,-1.529082 -1.51367,-2.416016 -1.87108,-0.824242 -2.14426,-1.621224 -2.03125,-5.964844 0.29789,-11.449789 3.37122,-13.071079 7.76562,-4.097656 2.22827,4.550167 6.6974,12.416846 7.82813,13.779296 0.62345,0.75121 3.6048,1.67117 6.625,2.04492 3.02021,0.37375 6.08504,1.17799 6.81054,1.78711 0.72551,0.60911 4.61414,2.26125 8.64063,3.67188 4.0265,1.41062 7.85953,2.59922 8.51953,2.64062 1.94627,0.12201 1.37153,-1.57643 -0.71875,-2.12305 -2.84362,-0.74363 -2.46561,-3.39648 2.69531,-18.941401 l 4.61328,-13.900391 3.06055,-0.05664 c 4.94069,-0.09136 3.14111,-1.621677 -5.38672,-4.582031 -7.92197,-2.750036 -11.28074,-2.721707 -7.14258,0.06055 1.188,0.798684 2.16016,2.176191 2.16016,3.060547 0,0.884355 -1.72784,6.69854 -3.83984,12.919922 -2.112,6.221382 -3.83985,11.783094 -3.83985,12.359374 0,1.77617 -3.07718,4.55859 -5.04101,4.55859 -2.33789,0 -7.09075,-2.62326 -10.43555,-5.75977 -2.85799,-2.679672 -8.52344,-12.52873 -8.52344,-14.816397 0,-0.813453 1.40314,-2.072619 3.11914,-2.798828 7.15832,-3.029409 9.03067,-9.8575 4.11133,-14.992188 -3.1395,-3.276929 -5.49376,-4.155675 -16.69726,-6.228516 -4.66478,-0.863064 -7.8174,-1.32745 -9.80469,-1.410156 z m -74.1543,1.873047 c -0.38836,0.0064 -0.65429,0.454987 -0.65429,1.412109 0,1.109606 -1.2425,1.441407 -5.41016,1.441407 -7.26171,0 -12.09072,1.58111 -16.59375,5.435547 -11.75805,10.064449 -9.62477,27.608234 4.14258,34.072269 7.12708,3.34616 18.78569,0.89392 24.22851,-5.095707 2.94964,-3.245977 5.32208,-8.274851 4.22461,-8.953125 -0.50582,-0.312614 -1.78587,1.131543 -2.8457,3.208984 -2.73332,5.357745 -7.14316,7.810548 -14.04102,7.810548 -7.53578,0 -11.29243,-2.543376 -13.87304,-9.394532 -2.42237,-6.431095 -2.43076,-11.972426 -0.0195,-16.941406 2.32696,-4.799271 6.30031,-6.802989 13.3496,-6.730469 4.71514,0.04851 5.44934,0.368068 8.48243,3.677734 1.82645,1.993002 3.54362,3.401694 3.81445,3.13086 0.48271,-0.482705 -0.77295,-5.225575 -2.76758,-10.460938 -0.64195,-1.684935 -1.46951,-2.622635 -2.03711,-2.613281 z m 87.29297,3.8125 c 6.8586,0 10.57713,7.852871 5.83008,12.3125 -2.40077,2.255403 -9.60262,2.962506 -10.7793,1.058594 -0.60536,-0.97948 0.0791,-8.118993 1.1211,-11.691406 0.34536,-1.18406 1.47484,-1.679688 3.82812,-1.679688 z m 66.9375,17.195313 c -2.06985,-0.01625 -4.11948,0.507971 -6.17383,1.570312 -6.13727,3.173706 -5.80358,10.296642 0.86914,18.556637 2.39836,2.96897 4.6506,5.61296 5.00586,5.87696 2.9251,2.17368 3.63336,8.31655 1.17383,10.18359 -5.73441,4.35304 -15.59961,-2.47249 -15.59961,-10.79297 0,-2.30479 -0.35236,-4.18945 -0.7832,-4.18945 -0.43084,0 -1.70742,2.26706 -2.83594,5.03906 -2.95451,7.25722 -2.99693,7.97328 -0.44141,7.61719 1.30767,-0.18221 3.61607,0.81863 5.76172,2.5 1.96837,1.54244 4.87499,3.26509 6.45899,3.82812 3.74117,1.32979 4.16512,1.34027 8.23047,0.21094 3.76323,-1.04539 7.01972,-4.06284 8.05078,-7.46094 0.91934,-3.02987 -2.16295,-8.94141 -8.59961,-16.490231 -6.23872,-7.316676 -6.90276,-10.659268 -2.48242,-12.490234 2.33191,-0.965906 3.38043,-0.884341 6.28125,0.492187 4.03017,1.912439 6.27929,5.640362 6.27929,10.410157 0,5.420341 1.43382,4.773281 4.16407,-1.875 1.40495,-3.421115 2.55468,-6.435614 2.55468,-6.699219 0,-0.263605 -1.01164,-0.224577 -2.24804,0.08594 -1.55839,0.391132 -3.10355,-0.149173 -5.03907,-1.759765 -3.67205,-3.055615 -7.17719,-4.586202 -10.62695,-4.613281 z m -219.57617,1.433593 c -1.53908,0.05409 -12.10938,6.499937 -12.10938,7.46875 0,0.467304 0.89884,0.370438 1.9961,-0.216797 1.09725,-0.587233 2.52811,-0.863315 3.17969,-0.613281 1.42022,0.54499 11.14453,16.753964 11.14453,18.576174 0,1.47918 -2.77911,1.66434 -5.95508,0.39648 -1.21284,-0.48417 -7.90976,-2.72328 -14.88281,-4.97461 l -12.67969,-4.09375 -3.32031,1.78907 c -1.82618,0.98346 -4.24333,2.48575 -5.37305,3.33789 -1.97426,1.48923 -1.86018,1.54796 2.95508,1.50586 l 5.00976,-0.0449 7.01758,12 c 3.85952,6.6 7.02897,12.83128 7.04297,13.84571 0.014,1.01442 -0.68866,2.63403 -1.5625,3.59961 -0.87387,0.96557 -1.2872,1.75586 -0.91797,1.75586 1.25734,0 13.06641,-7.12606 13.06641,-7.88477 0,-1.07919 -1.69634,-0.93606 -2.40039,0.20312 -1.55602,2.51769 -4.35988,0.7362 -7.63477,-4.85156 -1.8733,-3.19629 -1.8407,-3.3865 -3.53822,-6.41222 -1.57655,-2.8101 -0.93221,-1.79255 -1.78795,-3.13465 -1.96009,-3.07409 -2.48108,-5.76172 -0.46875,-5.76172 1.26858,0 9.76494,2.49401 29.45508,8.64453 3.0056,0.93885 5.65943,1.51048 5.89843,1.27148 0.53428,-0.53427 -4.71824,-8.76532 -5.31445,-9.75586 -0.0527,-0.0876 -0.51542,-0.79133 -0.76953,-1.29492 -0.24179,-0.47918 -2.3753,-5.17189 -5.2793,-10.300778 -2.904,-5.128885 -5.28125,-9.807822 -5.28125,-10.396485 0,-0.588664 0.69983,-1.770143 1.55469,-2.625 0.85485,-0.854857 1.35546,-1.751959 1.11328,-1.99414 -0.0297,-0.02967 -0.0825,-0.04172 -0.1582,-0.03906 z m 254.68945,15.634766 -3.2832,3.17969 c -3.50523,3.39735 -3.64617,5.78151 -0.19922,3.36718 1.13882,-0.79766 2.70468,-1.45117 3.47852,-1.45117 2.21636,0 7.75081,4.16092 7.75781,5.83203 0.006,1.37391 -2.18142,4.50048 -13.91211,19.87891 -3.67974,4.82397 -3.99995,5.0178 -7.67969,4.60938 l -3.83984,-0.42774 2.85937,2.09375 c 1.5729,1.15155 4.81212,3.65732 7.19922,5.56836 3.98587,3.19096 6.70743,4.26798 4.03711,1.59766 -0.6248,-0.6248 -1.13672,-2.08541 -1.13672,-3.2461 0,-2.25573 16.4919,-24.14308 18.88281,-25.06054 0.81757,-0.31373 2.81294,0.81857 4.7754,2.70898 3.00384,2.89355 3.30851,3.63756 2.80468,6.8457 -0.311,1.98 -0.34997,3.59961 -0.0879,3.59961 0.26275,0 1.61846,-1.72373 3.01367,-3.83203 2.08389,-3.14897 2.32421,-4.0928 1.33789,-5.28125 -0.66037,-0.7957 -1.79608,-1.44531 -2.52343,-1.44531 -0.72735,0 -1.32227,-0.36034 -1.32227,-0.79883 0,-0.4385 -2.05255,-2.25649 -4.56055,-4.04101 -2.508,-1.78452 -4.99153,-3.71721 -5.51953,-4.29493 -0.528,-0.57771 -3.46286,-2.92963 -6.52148,-5.22656 z m -142.75195,11.83398 c -24.10015,0.0224 -36.72889,1.72415 -59.2793,7.98633 -7.89501,2.19241 -10.51089,3.08045 -16.28711,5.5293 -1.056,0.4477 -4.17019,1.67639 -6.91992,2.73047 -13.37046,5.12542 -36.14448,18.59343 -50.01758,29.58008 -20.40828,16.16213 -41.35132,40.48392 -53.3164,61.91601 -1.40016,2.508 -3.57615,6.39663 -4.83399,8.64063 -8.43155,15.042 -17.69342,44.08563 -21.50781,67.43945 -2.13594,13.07719 -2.08499,47.06522 0.0918,60.48047 5.10619,31.4688 15.55444,59.26108 31.93945,84.95898 12.39547,19.4408 27.69999,36.5155 46.00391,51.32813 3.696,2.99103 7.48208,6.05912 8.41211,6.8164 0.93004,0.75728 2.08063,1.37696 2.55859,1.37696 0.47797,0 1.01345,0.38764 1.18945,0.86133 0.85761,2.30817 37.03426,22.17773 40.37891,22.17773 0.72454,0 1.72691,0.38703 2.22851,0.85937 1.03693,0.97645 13.30088,5.4601 18.54883,6.78125 1.91611,0.48238 6.7202,1.75217 10.67578,2.82227 6.45212,1.74548 21.77108,4.34902 30.72852,5.22266 16.95182,1.65336 48.69161,-0.19146 64.32031,-3.73828 10.26707,-2.33004 27.01982,-7.54053 34.5586,-10.74805 11.24524,-4.7845 21.72655,-9.97421 29.23632,-14.47852 14.47685,-8.68311 20.53762,-13.15865 35.98243,-26.56054 6.40541,-5.55814 18.02211,-17.86307 23.11132,-24.48047 1.8273,-2.376 3.83715,-4.85977 4.4668,-5.51953 2.99979,-3.1433 16.0094,-25.04292 21.24219,-35.75977 18.91398,-38.73612 25.73106,-86.01064 18.34375,-127.20117 -3.16847,-17.6669 -9.01173,-37.09874 -15.58789,-51.83985 -18.26948,-40.95287 -51.58492,-77.93274 -89.11719,-98.91796 -8.43438,-4.71587 -27.584,-13.88086 -29.00195,-13.88086 -0.6439,0 -1.58239,-0.38208 -2.08399,-0.84766 -1.18696,-1.10174 -13.73898,-5.04052 -25.87109,-8.11914 -15.56365,-3.94939 -29.33322,-5.43542 -50.19336,-5.41602 z m -157.95313,1.37696 c -0.8159,-0.008 -3.95495,2.51655 -10.61132,8.50781 -2.27627,2.04882 -2.47214,2.4421 -0.80664,1.62695 3.9503,-1.93338 4.35182,-1.58945 15.56445,13.39649 1.848,2.46989 4.33153,5.51374 5.51953,6.76367 2.37587,2.49973 2.83037,6.5593 0.96094,8.5918 -1.34676,1.46424 5.89215,-3.57696 10.30468,-7.17579 l 2.86719,-2.33789 -3.42578,0.55664 c -3.67481,0.59634 -3.17184,1.10298 -16.69141,-16.80273 -1.04717,-1.38691 -2.66677,-3.35925 -3.5996,-4.38281 -1.95195,-2.14182 -2.21127,-5.40006 -0.56055,-7.05078 0.6248,-0.6248 0.912,-1.36145 0.63672,-1.63672 -0.0365,-0.0365 -0.0891,-0.0559 -0.15821,-0.0566 z m 148.44141,13.82617 c 17.39524,-0.86106 34.85306,0.33595 50.58594,3.67969 18.27231,3.88346 37.69986,10.56038 38.22265,13.13672 0.25993,1.28101 -1.35218,1.54006 -11.03906,1.77148 -10.71669,0.25603 -11.36112,0.38353 -11.63476,2.30078 -0.25108,1.75911 0.30429,2.0962 4.16406,2.53125 2.44924,0.27607 4.95622,1.00413 5.57031,1.61719 0.76778,0.76652 1.20534,8.14693 1.4043,23.6289 0.24888,19.36704 0.0913,22.51368 -1.13086,22.51368 -1.64115,0 -1.88503,-0.23207 -10.19727,-9.65625 -3.432,-3.8911 -8.79186,-9.89847 -11.91015,-13.34961 -9.87093,-10.92456 -13.35875,-14.80263 -20.14063,-22.39453 l -6.61133,-7.40039 h -12.2832 c -11.42334,0 -12.32847,0.13473 -12.89258,1.9121 -0.88445,2.78663 0.17338,3.84766 3.83203,3.84766 4.10687,0 8.04153,1.48386 10.80469,4.07227 2.152,2.01609 2.16016,2.13322 2.16016,32.52148 0,30.42773 -0.004,30.50121 -2.13282,31.99219 -1.17348,0.82194 -3.76524,1.49414 -5.75976,1.49414 -3.22815,0 -3.62695,0.26395 -3.62695,2.40039 v 2.40039 h 15.83984 15.83984 v -2.27539 c 0,-1.9843 -0.55109,-2.33709 -4.31836,-2.76172 -7.43831,-0.83841 -7.20117,0.0286 -7.20117,-26.28125 0,-22.33633 0.0827,-23.40234 1.82031,-23.40234 1.0013,0 3.21765,1.61961 4.92579,3.59961 1.70815,1.98 5.13201,5.76039 7.60742,8.40039 2.47542,2.64 12.20318,13.44 21.61719,24 13.55423,15.20422 17.6754,19.26293 19.80078,19.49804 l 2.68359,0.29688 0.29297,-37.05274 c 0.31892,-40.37816 0.091,-38.85481 5.8125,-38.88671 l 2.63867,-0.0156 v 43.1582 43.15821 l -24.23828,20.71093 c -13.332,11.39163 -25.55321,21.88669 -27.15625,23.32227 -1.60305,1.43559 -5.03384,4.33917 -7.625,6.45117 -2.59116,2.112 -6.68015,5.58564 -9.08594,7.71875 -2.4058,2.13311 -7.02397,6.12802 -10.26367,8.87891 -3.23969,2.75089 -6.69538,4.97445 -7.67969,4.93945 -1.50254,-0.0534 -10.97392,-7.57441 -23.89453,-18.97461 -1.59717,-1.40922 -5.91678,-5.14824 -9.59961,-8.30859 -3.68284,-3.16035 -6.91178,-5.98378 -7.17578,-6.27344 -0.264,-0.28966 -7.39184,-6.32388 -15.83984,-13.41016 -8.448,-7.08628 -18.49232,-15.6565 -22.32032,-19.04492 l -6.96093,-6.16015 v -5.88282 -5.88281 l 34.40625,0.28516 c 27.30126,0.22583 34.60985,0.0266 35.39648,-0.96094 0.54525,-0.68453 2.40387,-5.13277 4.13086,-9.88477 1.72699,-4.752 3.34067,-9.17984 3.58594,-9.83984 0.29662,-0.79821 -0.55311,-1.19922 -2.53711,-1.19922 -1.64049,0 -2.98242,0.39246 -2.98242,0.87305 0,1.80373 -7.8078,10.66347 -10.72852,12.17383 -2.35347,1.21703 -6.12059,1.60184 -16.70898,1.70312 -7.51936,0.0719 -14.03388,-0.22944 -14.47657,-0.66797 -0.44269,-0.43852 -0.94411,-7.45813 -1.11328,-15.59961 l -0.30664,-14.80273 h 11.96094 c 13.83387,0 15.83555,0.86178 16.86719,7.25977 0.51986,3.22405 0.99658,3.82493 3.23828,4.08398 l 2.62891,0.30469 v -15.00782 -15.00781 l -2.60743,0.30274 c -2.09478,0.24419 -2.73354,0.93781 -3.25976,3.53125 -0.36004,1.7744 -1.31882,3.89108 -2.13086,4.70312 -1.88349,1.88349 -8.58489,2.98004 -18.64258,3.05274 l -7.91992,0.0566 V 166.9362 153.01628 l 3.59961,-0.10742 c 10.22403,-0.30557 25.08715,0.32977 27.82226,1.18945 2.53563,0.79698 3.30039,1.70726 4.18946,4.98633 0.5982,2.20632 1.2406,4.55289 1.42773,5.21289 0.18713,0.66 1.43492,1.19922 2.77149,1.19922 2.40482,0 2.42901,-0.0823 2.41601,-7.91992 -0.007,-4.356 -0.27343,-8.89208 -0.5918,-10.08008 l -0.57812,-2.16015 h -31.1582 c -28.0783,0 -31.12932,-0.15198 -30.84961,-1.53907 0.34361,-1.70398 5.3374,-3.84669 19.03125,-8.16992 15.48618,-4.88907 32.81961,-7.80886 50.21484,-8.66992 z m -77.0957,22.91211 5.87109,0.5332 c 3.22907,0.2928 6.36201,1.02256 6.96094,1.6211 0.76852,0.76801 1.08789,10.52631 1.08789,33.16406 0,28.0531 -0.19106,32.26999 -1.52734,33.60742 -0.84945,0.85019 -3.9391,1.77816 -6.95899,2.08984 l -5.43359,0.56055 v -35.78711 z m 181.20117,1.22461 c 1.50394,-0.002 9.59017,3.59407 10.79883,4.80273 0.264,0.264 3.70549,2.6393 7.64648,5.2793 3.94098,2.64 8.04412,5.52085 9.11914,6.40039 1.07501,0.87953 3.89939,3.18487 6.27539,5.12305 9.82826,8.01722 22.00154,20.76467 29.75977,31.16406 1.32,1.76937 2.84111,3.68924 3.38086,4.26562 1.77255,1.89287 7.73009,11.74625 9.68164,15.25586 1.08615,1.9533 1.68092,2.66088 2.24514,3.61929 0.57563,0.97781 1.01267,2.04869 1.01267,2.33189 v 2.40039 l -39.59961,-0.0371 c -32.96854,-0.0304 -39.80173,-0.26372 -40.80078,-1.39844 -0.91786,-1.04251 -1.19922,-10.5137 -1.19922,-40.2832 0,-36.42614 0.10736,-38.92183 1.67969,-38.92383 z m -189.36133,0.82031 0.29102,39.91016 0.28906,39.91211 h -39.89063 c -36.5065,0 -39.88867,-0.13514 -39.88867,-1.5918 0,-1.59213 10.31132,-19.02584 13.48828,-22.80469 0.92647,-1.10199 4.27316,-5.24312 7.43555,-9.20312 5.87115,-7.35197 19.2263,-20.68801 27.18945,-27.14844 9.45786,-7.67308 25.15452,-17.88914 28.51563,-18.56055 z m 86.97266,78.86133 c -14.802,0 -17.3711,0.21445 -17.3711,1.4414 0,0.93822 0.93841,1.43946 2.69532,1.43946 1.48308,0 3.53562,0.61286 4.56054,1.36133 1.71099,1.2495 1.88832,2.84146 2.16016,19.46875 0.35426,21.66915 -0.0412,23.33007 -5.55274,23.33007 -2.79445,0 -3.86328,0.39799 -3.86328,1.43946 0,1.22 2.34605,1.4414 15.35938,1.4414 13.01333,0 15.35937,-0.2214 15.35937,-1.4414 0,-1.02736 -1.04576,-1.43946 -3.64843,-1.43946 -5.31392,0 -5.95118,-1.1441 -5.95118,-10.67578 v -8.37304 l 8.40039,0.0742 c 10.76169,0.0938 16.1264,-1.41773 20.13672,-5.66992 2.6541,-2.81416 3.14258,-4.05241 3.14258,-7.95312 0,-4.14964 -0.37952,-4.96305 -3.73242,-7.99219 -5.88943,-5.32075 -11.44288,-6.45117 -31.69531,-6.45117 z m 3.74804,4.80078 h 4.73829 c 10.53775,0 15.31074,5.16354 12.93945,13.99414 -0.29442,1.09638 -1.75806,2.71599 -3.25391,3.59961 -1.74187,1.02895 -4.82436,1.60547 -8.57226,1.60547 h -5.85157 v -9.59961 z m -176.37304,5.75977 35.14648,0.002 35.14649,0.004 21.65039,18.47657 c 11.90762,10.16258 31.05912,26.47028 42.55859,36.23828 11.49946,9.768 22.49278,19.16332 24.42969,20.8789 1.93691,1.71559 3.75832,2.94497 4.03907,3.2754 0.66716,0.78525 0.90109,0.81785 0.87499,2.00585 -0.0343,1.56199 -3.55662,5.13118 -12.7207,12.89258 -6.96993,5.90309 -18.9358,16.06944 -26.5918,22.5918 -7.656,6.52235 -18.23953,15.48227 -23.51953,19.91016 -5.28,4.42789 -12.19333,10.28635 -15.36133,13.01953 -3.168,2.73319 -6.8382,5.87426 -8.1582,6.98047 -1.32,1.10621 -3.69725,3.11617 -5.28125,4.46679 l -2.87891,2.45508 -35.64258,0.002 c -27.37491,9e-4 -35.85974,-0.27756 -36.58007,-1.19921 -1.15705,-1.48043 -6.08846,-15.9819 -8.73243,-25.67969 -2.47425,-9.07526 -4.58441,-20.86153 -5.8789,-32.84375 -3.33863,-30.90347 2.01751,-66.59581 14.43164,-96.16992 z m 326.48633,0.21289 35.39257,0.26757 1.92383,4.80079 c 15.34481,38.30484 19.54931,76.8664 12.61328,115.67968 -2.43654,13.63468 -9.1826,36.34931 -12.1875,41.03907 -0.59323,0.92586 -9.20102,1.20117 -37.67773,1.20117 h -36.9082 l -10.31446,-8.94922 c -5.67318,-4.92113 -11.39484,-9.87816 -12.71484,-11.01758 -1.32,-1.13941 -8.44785,-7.09924 -15.83985,-13.24414 -7.392,-6.14489 -13.54328,-11.62225 -13.9121,-11.94727 -1.79394,-1.58089 -6.05484,-4.77715 -7.35743,-5.97265 -1.21267,-1.005 -2.75486,-2.40643 -5.13086,-4.45703 -2.376,-2.05061 -7.776,-6.63579 -12,-10.18946 -15.29984,-12.87184 -17.82912,-15.22859 -17.55664,-16.35156 0.4986,-2.05489 25.90123,-23.29218 28.14844,-24.92383 1.34371,-0.97564 1.79688,-1.50662 2.67188,-2.24218 0.73147,-0.6149 2.20977,-2.12823 4.10742,-3.63868 1.89766,-1.51045 5.02864,-4.1516 6.95898,-5.86718 1.93035,-1.71559 3.80009,-3.00938 4.11329,-3.24414 0.37578,-0.28167 1.80903,-1.28939 3.39062,-2.67969 1.57019,-1.38029 7.47911,-6.69916 13.28711,-11.64844 5.808,-4.94928 11.03533,-9.44515 11.61719,-9.99219 0.58185,-0.54705 3.14437,-2.72393 5.69531,-4.83593 2.55095,-2.112 6.39577,-5.45957 8.54297,-7.43946 2.1472,-1.97988 4.76822,-3.82819 5.82422,-4.10742 1.056,-0.2792 17.84633,-0.38734 37.3125,-0.24023 z m -320.69727,37.03515 c -2.25603,0.4231 -2.58687,2.00968 -3.51367,16.80469 l -0.41016,6.53125 3.45703,-0.29102 c 3.17842,-0.26819 3.51858,-0.59658 4.23828,-4.08398 1.60948,-7.79899 6.18664,-10.12891 19.90235,-10.12891 h 9.63086 v 33.97461 c 0,39.76568 0.47137,37.81775 -9.37891,38.71094 -5.35361,0.48545 -5.98242,0.76298 -5.98242,2.64844 0,1.15866 0.29539,2.40086 0.65625,2.76172 0.36087,0.3609 11.48557,0.54125 24.7207,0.40039 l 24.06446,-0.25586 v -2.88086 c 0,-2.86274 -0.0358,-2.88172 -6.00782,-3.16602 -9.33685,-0.44449 -8.94233,1.30044 -8.64453,-38.20312 l 0.25195,-33.50977 10.29297,0.0957 c 9.3661,0.0865 10.63015,0.31629 14.02735,2.56445 2.93249,1.94063 3.9708,3.41396 4.83984,6.86523 1.04922,4.16681 1.28008,4.39453 4.45313,4.39453 h 3.3457 l -0.006,-5.04101 c -0.004,-2.772 -0.27692,-7.9016 -0.60742,-11.40039 l -0.60156,-6.36133 -43.3125,-0.41211 c -23.82174,-0.22653 -44.25906,-0.23324 -45.41602,-0.0176 z m 312.56445,1.15235 c -21.26431,0 -35.11736,7.03447 -42.47851,21.57226 -6.94388,13.71369 -3.98506,30.53957 7.22265,41.06836 2.66972,2.508 5.45356,4.55859 6.18555,4.55859 0.73198,0 1.33008,0.86393 1.33008,1.91993 0,1.62743 -0.63922,1.91992 -4.19922,1.91992 -7.77235,0 -10.23993,-0.91844 -10.86523,-4.04492 -0.47657,-2.38287 -3.19171,-4.59375 -5.63868,-4.59375 -0.22962,0 -0.41601,5.61647 -0.41601,12.48047 v 12.47851 h 21.59961 c 19.60016,0 21.59961,-0.14977 21.59961,-1.61523 0,-0.88824 -0.47427,-5.31788 -1.05469,-9.84375 l -1.05664,-8.22852 -4.90039,-2.39648 c -9.13061,-4.46483 -14.10938,-14.28698 -14.10938,-27.83594 0,-12.04527 4.56206,-22.50645 11.70703,-26.85156 4.99848,-3.03973 15.27921,-4.4277 22.23243,-3 13.8325,2.84021 20.24522,12.32903 20.17382,29.85156 -0.0596,14.64074 -4.9033,23.69873 -15.22851,28.47656 l -3.83594,1.77539 -1.05664,9.11328 c -0.58185,5.01296 -0.88259,9.43994 -0.66797,9.83594 0.21462,0.396 10.08476,0.71875 21.9336,0.71875 h 21.54296 v -12 -12 h -2.8789 c -2.20385,0 -2.88086,0.43564 -2.88086,1.85156 0,3.27149 -4.47966,5.82813 -10.20899,5.82813 -4.27863,0 -5.14433,-0.28409 -5.11523,-1.67969 0.0193,-0.924 1.92755,-2.87974 4.24219,-4.3457 4.90572,-3.10699 10.20889,-10.62492 12.55664,-17.80274 3.75486,-11.47983 -0.35708,-26.97031 -9.36328,-35.26757 -9.31026,-8.5774 -19.55972,-11.94336 -36.3711,-11.94336 z M 71.595655,305.77215 c -2.417767,0.006 -4.899314,0.59342 -7.28125,1.8086 -11.620864,5.92853 -11.547269,22.15272 0.128907,28.53711 13.833914,7.5642 28.585879,-8.61816 20.474609,-22.45899 -2.989944,-5.10195 -8.003178,-7.89954 -13.322266,-7.88672 z m 492.250005,0.0391 c -2.85411,-0.11158 -5.78967,0.61559 -8.5586,2.23829 -11.40896,6.68609 -10.83082,22.35994 1.0332,28.03515 3.38307,1.61831 5.88025,2.16636 8.45899,1.85742 11.55536,-1.38432 18.06072,-15.42824 11.51953,-24.86718 -3.16406,-4.56574 -7.69628,-7.07769 -12.45312,-7.26368 z m -246.49415,29.60547 c 1.2536,0 4.97209,2.9658 19.12891,15.26172 1.584,1.37579 5.45176,4.66169 8.5957,7.30078 3.14394,2.6391 6.41537,5.44628 7.26954,6.23828 3.60778,3.34522 8.41294,7.42651 12.4375,10.56446 2.3667,1.84532 4.9897,4.00292 5.83007,4.79492 0.84038,0.792 4.04136,3.60023 7.11133,6.24023 3.06997,2.64 6.49247,5.60495 7.60742,6.58789 1.11495,0.98295 3.9464,3.35825 6.29102,5.2793 2.34461,1.92106 5.69206,4.91093 7.43945,6.64453 l 3.17774,3.15235 v 49.29101 c 0,38.27852 -0.26731,49.5057 -1.19922,50.25391 -2.33014,1.87082 -22.57846,8.94704 -33.41992,11.67969 -6.03949,1.52228 -16.31364,3.45625 -22.83008,4.29882 -10.65855,1.37815 -37.32323,1.9043 -45.75,0.90235 -23.4385,-2.78684 -36.85581,-6.07702 -56.88086,-13.95117 l -9.83985,-3.86914 v -49.6504 -49.65039 l 10.32032,-8.71289 c 5.676,-4.79258 11.18853,-9.51044 12.25,-10.48437 1.06147,-0.97393 3.96564,-3.4114 6.45508,-5.41602 2.48944,-2.00461 5.08456,-4.16539 5.76757,-4.80078 3.39391,-3.15725 10.40603,-9.28954 15.03907,-13.1543 11.04256,-9.2114 22.82391,-19.22101 29.09765,-24.7207 2.55983,-2.244 5.305,-4.08008 6.10156,-4.08008 z m 1.76758,25.91993 c -15.37919,0 -19.67147,0.26721 -19.36328,1.20117 0.21779,0.66 2.65378,1.42944 5.41406,1.71093 2.88798,0.29451 5.39765,1.10959 5.91016,1.91993 0.48985,0.77451 0.8963,9.02272 0.9043,18.33007 0.0167,19.20088 0.16816,18.80902 -7.5625,19.72461 -2.6959,0.31928 -4.90235,0.95376 -4.90235,1.40821 0,0.45446 8.85569,0.82617 19.67969,0.82617 12.48,0 19.68164,-0.35216 19.68164,-0.96094 0,-0.528 -1.13856,-0.95898 -2.5293,-0.95898 -1.39074,0 -4.19897,-0.50171 -6.24023,-1.11328 l -3.71094,-1.11133 v -17.53906 c 0,-20.30497 0.0943,-20.55665 7.74805,-20.55665 3.56572,0 4.73242,-0.35618 4.73242,-1.4414 0,-1.23336 -2.83728,-1.43945 -19.76172,-1.43945 z m 91.52149,52.48828 c 0.396,-0.23401 19.61875,-0.19537 42.71875,0.082 37.7135,0.45611 42,0.66645 42,2.05078 0,3.40986 -18.19575,31.65318 -25.41992,39.45703 -18.17827,19.63693 -30.40762,29.85537 -49.73438,41.55664 -4.11073,2.48882 -8.10564,4.52539 -8.87891,4.52539 -1.21397,0 -1.40625,-5.9563 -1.40625,-43.62305 0,-23.99284 0.32471,-43.81483 0.72071,-44.04882 z m -228.24024,0.3125 h 41.2793 v 42.71875 c 0,33.56172 -0.25647,42.70977 -1.19922,42.67187 -2.58958,-0.10408 -17.44336,-9.80143 -30.96094,-20.21484 -5.919,-4.55975 -25.1997,-24.64857 -30.76757,-32.05664 -9.15732,-12.18385 -19.63282,-29.26381 -19.63282,-32.01172 0,-0.81982 10.7308,-1.10742 41.28125,-1.10742 z m 75.08789,1.05468 c -0.94912,0.12763 -0.62294,0.50471 0.27149,1.22657 2.13399,1.72226 16.38931,12.17611 25.66992,18.82422 3.30573,2.36804 6.4427,4.65274 6.9707,5.07812 0.528,0.42538 6.68369,4.89181 13.67969,9.92578 6.996,5.03397 12.7207,9.66831 12.7207,10.29688 0,0.62857 -2.83348,2.86471 -6.29492,4.96875 -3.46143,2.10404 -6.80888,4.27833 -7.43945,4.83203 -0.63056,0.5537 -3.73825,2.46842 -6.90625,4.25586 -3.168,1.78743 -5.97624,3.49411 -6.24024,3.79297 -0.264,0.29887 -1.34439,1.05241 -2.40039,1.67382 -5.24763,3.08805 -21.17958,13.21697 -21.59961,13.73243 -0.264,0.32397 -2.63929,1.86517 -5.27929,3.42382 l -4.80078,2.83399 58.08007,0.48047 c 31.944,0.264 58.51302,0.44685 59.04102,0.40625 0.528,-0.0407 1.43929,-1.99084 2.02734,-4.33203 0.58806,-2.34118 2.24089,-7.06017 3.67188,-10.48633 3.70227,-8.86414 3.67065,-9.16922 -0.90039,-8.78516 -2.84075,0.23868 -4.40581,1.03192 -6.01563,3.05078 -1.19684,1.50095 -3.7886,3.73144 -5.75976,4.95703 -3.50452,2.179 -4.20059,2.2344 -31.42383,2.49805 -15.312,0.1483 -30.32979,-0.0682 -33.37305,-0.48047 l -5.5332,-0.74804 4.37109,-3.36133 c 2.40499,-1.848 4.97252,-3.8986 5.70508,-4.5586 0.73257,-0.66 1.58415,-1.20117 1.89063,-1.20117 0.30649,0 4.11556,-2.30918 8.46679,-5.13281 4.35122,-2.82364 11.71479,-7.53768 16.36328,-10.47461 6.62878,-4.1881 8.18297,-5.57376 7.20118,-6.42773 -2.47474,-2.15254 -38.71948,-28.11742 -39.89258,-28.57813 -0.66,-0.25919 -1.19922,-1.28955 -1.19922,-2.28906 0,-1.73466 1.05772,-1.81437 23.2793,-1.75977 29.9576,0.0736 31.60001,0.34393 36.84765,6.0586 3.31422,3.60917 4.69314,4.44336 7.33594,4.44336 h 3.25391 l -0.35743,-5.51954 c -0.19737,-3.036 -0.57776,-6.92462 -0.84375,-8.64062 l -0.48242,-3.11914 h -46.84961 c -25.76696,0 -50.91184,-0.26715 -55.87695,-0.59375 -4.20542,-0.27663 -6.42979,-0.39911 -7.37891,-0.27149 z m -134.55664,21.56055 c -0.0867,-0.004 -0.16322,0.0143 -0.22851,0.0547 -0.61259,0.37862 -0.57619,0.95762 0.0937,1.63086 0.57401,0.574 1.04301,2.14383 1.04101,3.49023 -0.002,2.11633 -1.96872,3.67158 -14.5039,11.48047 -15.118128,9.41785 -19.093753,11.14646 -19.093753,8.29688 0,-0.88826 0.456421,-2.46659 1.013672,-3.50782 2.249225,-4.20272 -1.832823,-7.76459 -5.751954,-5.01953 -3.136414,2.19683 -2.500753,5.86803 1.732422,10.01758 6.676897,6.545 10.951541,6.11068 24.128903,-2.45703 15.82916,-10.29166 18.5902,-11.11379 21.39063,-6.37305 3.13157,5.30133 3.1559,5.26594 -15.625,20.64453 -7.12439,5.83376 -10.82776,8.2461 -12.66211,8.2461 -1.42609,0 -2.86118,-0.43099 -3.1875,-0.95899 -0.32632,-0.528 -0.99672,-0.96093 -1.490235,-0.96093 -0.75523,0 10.915765,14.50351 16.562495,20.58203 0.95145,1.02421 2.70128,3.28902 3.88868,5.0332 1.18739,1.74418 2.37662,3.17473 2.64062,3.17773 0.95831,0.0115 9.5292,-3.44326 10.19531,-4.10937 0.37627,-0.37627 -1.22464,-0.68645 -3.55664,-0.68945 -4.95271,-0.007 -8.66754,-1.72306 -11.8457,-5.47071 -1.25186,-1.47619 -3.18452,-3.72144 -4.29492,-4.99023 -2.47917,-2.83279 -2.57115,-5.32119 -0.27735,-7.5332 4.18943,-4.04002 9.80317,-7.91545 11.40235,-7.87305 0.95496,0.0253 3.35594,2.07417 5.33594,4.55469 3.65732,4.58185 4.56219,8.45343 2.46484,10.55078 -0.62475,0.6248 -0.8627,1.41073 -0.52734,1.74609 0.51138,0.51138 11.26171,-7.88423 11.26171,-8.79492 0,-10e-4 -8e-5,-0.005 0,-0.006 v -0.002 l -0.004,-0.008 -0.002,-0.002 c -0.12403,-0.13606 -1.50281,-0.0397 -3.16797,0.23047 -2.88531,0.46822 -3.58495,0.0504 -7.67969,-4.57422 -2.47794,-2.7986 -4.50586,-5.81389 -4.50586,-6.70117 0,-0.88728 1.61961,-2.82889 3.59961,-4.31641 1.98,-1.48751 4.30037,-3.48438 5.1543,-4.43554 2.51481,-2.80112 4.06945,-2.06891 9.18945,4.32031 5.93205,7.40257 6.60643,9.30586 4.64258,13.10351 -2.00015,3.86788 -0.67888,3.70754 3.30078,-0.39843 l 3.22265,-3.32422 -3.7539,-4.125 c -2.06495,-2.26897 -5.05077,-5.79462 -6.63477,-7.83399 -1.584,-2.03937 -4.30776,-5.35003 -6.05273,-7.35742 -2.73261,-3.14357 -6.71414,-9.25473 -14.82227,-22.75195 -0.90157,-1.50081 -1.98659,-2.56068 -2.59375,-2.58594 z m 399.39649,6.14649 c -8.25869,0.0275 -15.92078,6.39455 -25.5293,20.47656 -3.1672,4.64176 -6.32463,9.24458 -7.01562,10.22851 -0.80902,1.15198 -0.91056,2.00336 -0.28711,2.38868 0.5325,0.3291 1.43669,-0.27882 2.00976,-1.34961 1.7773,-3.32091 5.31973,-2.30946 14.2168,4.05468 4.61339,3.3 10.3166,7.29491 12.67383,8.87891 8.47945,5.69799 8.75402,6.18626 6.23242,11.0625 -2.8928,5.59406 0.93014,1.90021 7.21094,-6.9668 8.78556,-12.40314 13.33407,-21.38526 13.39257,-26.44726 0.0913,-7.89886 -5.99837,-16.50983 -14.35156,-20.29102 -2.97945,-1.34869 -5.79984,-2.04433 -8.55273,-2.03515 z m -5.39453,7.80273 c 0.78852,-0.0147 1.6661,0.0334 2.70703,0.125 6.31794,0.55591 13.04258,4.54935 16.41601,9.75195 4.24408,6.54535 3.18654,16.38217 -2.51562,23.39844 -0.53638,0.66 -2.1107,1.18557 -3.49805,1.16797 -2.21814,-0.0281 -3.90316,-0.97482 -8.48242,-4.76758 -0.63772,-0.52819 -1.5738,-0.96094 -2.08008,-0.96094 -0.50629,0 -1.06423,-0.33158 -1.24023,-0.73828 -0.176,-0.4067 -4.10071,-3.29354 -8.72071,-6.41406 -6.06547,-4.09683 -8.40039,-6.23066 -8.40039,-7.67773 0,-3.2177 4.4706,-8.89608 9.17383,-11.65235 2.71724,-1.59238 4.27507,-2.18835 6.64063,-2.23242 z m -30.83399,32.62695 c -1.74265,-0.0226 -3.60553,0.47788 -5.72656,1.48438 -3.46099,1.64234 -21.49219,18.34297 -21.49219,19.90625 0,0.50349 0.78834,0.2 1.75391,-0.67383 0.96558,-0.87383 2.58714,-1.59266 3.60156,-1.59766 1.11938,-0.005 6.64091,4.99564 14.04688,12.72071 9.34088,9.74335 12.21183,13.33504 12.24023,15.3125 0.0204,1.42083 -0.39583,2.84946 -0.92383,3.17578 -0.528,0.32632 -0.95898,1.09727 -0.95898,1.71289 0,0.61563 3.22731,-2.08764 7.17187,-6.00586 3.94456,-3.91823 6.96049,-7.33444 6.70313,-7.5918 -0.25736,-0.25735 -0.97872,0.0432 -1.60352,0.66797 -2.19163,2.19163 -5.0569,1.09162 -10.08203,-3.87109 -5.0003,-4.93819 -5.81909,-6.72386 -4.23242,-9.22657 0.66733,-1.0526 3.15315,-0.9842 14.29883,0.38868 l 13.49218,1.66211 4.64454,-4.60938 c 2.60922,-2.58784 3.80481,-4.28968 2.72656,-3.88281 -5.7222,2.15923 -8.23572,2.33282 -17.29102,1.19336 l -9.58789,-1.20703 0.26758,-2.85547 c 0.97877,-10.39335 0.84651,-11.09534 -2.63281,-14 -2.1349,-1.78229 -4.17547,-2.67412 -6.41602,-2.70313 z m -4.96484,5.84375 c 2.08799,0.0128 4.3257,0.97131 6.52344,2.82227 3.31023,2.78792 3.21041,7.97013 -0.25391,13.20508 -1.44749,2.18731 -3.3021,3.97656 -4.12109,3.97656 -2.23626,0 -11.92383,-9.95072 -11.92383,-12.24805 0,-2.11821 4.4589,-6.40848 7.74414,-7.45117 0.65592,-0.20818 1.33525,-0.30896 2.03125,-0.30469 z m -319.16016,0.95313 c -2.27008,0.0107 -4.4922,0.66258 -6.49219,2.01172 -4.0044,2.70127 -5.38272,7.25465 -3.84375,12.70312 1.05801,3.74572 1.54136,5.0679 3.68946,10.09766 4.09944,9.59881 3.78864,14.07524 -1.09571,15.79297 -3.51204,1.23512 -8.78693,-1.49463 -11.96875,-6.19336 -2.30392,-3.4023 -2.48748,-7.67762 -0.61914,-14.40039 0.50812,-1.82834 -0.60872,-1.02864 -4.68945,3.35937 -2.94615,3.168 -5.23319,6.1927 -5.08203,6.7207 0.15116,0.528 1.34959,1.08856 2.66211,1.2461 1.40432,0.16856 3.04178,1.39726 3.98047,2.98633 0.87734,1.48521 3.19401,4.25401 5.14843,6.15234 8.289,8.05109 20.82844,5.73303 22.14649,-4.09375 0.48189,-3.59272 -2.27176,-13.85056 -4.52344,-16.85156 -0.39616,-0.528 -1.29563,-3.25532 -2,-6.06055 -1.45927,-5.81178 -0.77549,-7.73629 3.22656,-9.07031 7.72206,-2.57402 15.02113,9.30373 10.76954,17.52539 -2.19798,4.24995 -0.18342,4.24044 2.96289,-0.0117 3.22894,-4.3652 7.26976,-5.19869 9.05273,-1.86719 1.2999,2.42889 0.60261,4.70728 -3.34961,10.92774 -12.34809,19.43486 -13.35836,25.19828 -5.74414,32.8125 9.22791,9.2279 20.5409,11.19415 27.27734,4.74023 1.4454,-1.38479 5.53369,-7.44237 9.08594,-13.46094 3.55225,-6.01856 7.06796,-11.44849 7.8125,-12.0664 1.81929,-1.50988 6.17969,-0.32884 6.17969,1.67383 0,0.87237 -0.75569,2.42158 -1.67969,3.44336 -1.13773,1.25811 -1.65773,3.35009 -1.61133,6.48046 0.0721,4.86243 2.13724,8.44217 8.64453,14.97852 5.0203,5.04272 7.12696,8.63447 7.12696,12.15234 0,2.65202 -0.445,3.45832 -2.16016,3.91797 -4.64328,1.24435 -9.00318,0.59406 -12.29492,-1.83398 -3.88414,-2.86501 -4.58693,-4.33111 -4.67773,-9.74414 -0.0594,-3.54393 -1.35429,-6.05198 -2.52149,-4.88477 -1.01117,1.01116 -5.19417,13.82449 -4.82812,14.78906 0.22855,0.60258 1.51527,0.871 2.90429,0.60547 1.69981,-0.32494 3.76758,0.36491 6.49219,2.16797 2.19871,1.45504 5.10575,2.98152 6.46094,3.39258 4.53671,1.3761 10.98733,0.97852 13.75976,-0.84961 4.14036,-2.73015 5.44161,-5.07524 5.47461,-9.86719 0.0342,-4.96999 -1.03049,-6.70865 -9.45703,-15.44922 -5.64206,-5.85232 -7.70516,-8.90717 -7.75976,-11.49218 -0.099,-4.68953 7.65697,-6.18425 13.01953,-2.50977 3.40058,2.33011 5.72171,7.77583 4.97656,11.67383 -0.28518,1.49182 0.0256,2.61975 0.80273,2.91797 1.52142,0.58382 1.85709,0.0883 2.7461,-4.05469 0.37585,-1.75157 1.2864,-4.34334 2.02539,-5.75977 2.15661,-4.13366 1.7874,-6.08145 -1.01953,-5.37695 -1.72278,0.43239 -3.76521,-0.2737 -7.43946,-2.57031 -4.22232,-2.63919 -6.01554,-3.17127 -10.77734,-3.20117 -4.36199,-0.0273 -6.20602,-0.49429 -7.80469,-1.97266 -2.96121,-2.73838 -13.88772,-8.45467 -14.64843,-7.66406 -0.34892,0.36263 0.33739,1.31265 1.52539,2.11133 2.79124,1.87653 2.72846,4.19571 -0.24024,8.89843 -1.32,2.09102 -2.40039,4.03042 -2.40039,4.31055 0,0.28014 -2.36892,4.34058 -5.26562,9.02344 -5.3947,8.72117 -6.62159,9.6651 -12.58985,9.6914 -7.74667,0.0341 -14.7832,-5.44171 -14.7832,-11.50585 0,-3.43068 2.99585,-10.03377 9.20508,-20.28516 1.80078,-2.97306 3.27539,-5.81665 3.27539,-6.31836 0,-1.76038 4.51198,-3.3716 7.56445,-2.70117 1.64662,0.36166 2.99414,0.42622 2.99414,0.14453 0,-0.2817 -4.06025,-2.93469 -9.02344,-5.89649 -4.99428,-2.98035 -9.23408,-6.18716 -9.49414,-7.18164 -0.32185,-1.23076 -1.06267,-1.64318 -2.34961,-1.30664 -1.44771,0.37859 -2.58776,-0.61464 -4.9707,-4.32812 -3.57118,-5.5652 -8.79292,-8.6426 -13.78711,-8.61914 z m 290.87305,20.0332 c -9.61234,-0.0365 -18.75398,6.04837 -22.96094,15.2832 -1.55052,3.40364 -1.85607,5.56153 -1.46875,10.38672 0.78844,9.8224 6.84978,17.58633 16.54297,21.19336 9.10927,3.38974 23.13648,-3.36759 28.57617,-13.76562 3.09423,-5.91466 2.83982,-15.10384 -0.58008,-20.93946 -4.99485,-8.52306 -10.95216,-12.1234 -20.10937,-12.1582 z m -3.85156,4.17188 c 1.79649,-0.0199 3.54621,0.2714 5.09179,0.92773 7.70529,3.27208 15.32675,15.33377 15.34375,24.28516 0.009,4.4719 -0.345,5.28055 -3.82226,8.75781 -2.11093,2.11093 -5.18202,4.10202 -6.83985,4.43359 -4.61079,0.92216 -5.81079,0.75748 -10.14648,-1.38867 -3.98897,-1.97451 -10.1985,-9.19566 -12.56836,-14.61523 -1.4414,-3.29628 -1.53685,-12.2699 -0.16211,-15.28711 1.91147,-4.19523 7.71404,-7.05369 13.10352,-7.11328 z m 68.25,7.72265 c 0.0813,0.0795 0.07,0.0793 0.27929,0.0723 0.0303,-10e-4 0.0603,-0.002 0.0898,-0.004 -0.11728,-0.0287 -0.23773,-0.0404 -0.36914,-0.0684 z m -115.35352,12.65821 c -0.06,-0.002 -0.12269,-10e-4 -0.18945,0.002 -1.17506,0.0596 -3.42844,0.89871 -7.60938,2.75 -1.59193,0.70489 -5.15799,2.26363 -7.92578,3.46484 -5.52363,2.39726 -5.7566,3.38511 -0.69726,2.94922 3.19267,-0.27506 3.3687,-0.10173 6.1875,6.05274 1.596,3.48464 2.90234,6.50136 2.90234,6.70507 0,0.20372 1.46443,3.54096 3.25391,7.41602 1.78949,3.87507 3.83638,8.71119 4.54882,10.74609 1.25207,3.5762 1.20713,3.7687 -1.33398,5.79492 -1.44592,1.15293 -2.62891,2.40509 -2.62891,2.78125 0,1.47024 1.12433,1.07943 14.95117,-5.18945 2.1511,-0.97527 5.60679,-2.37354 7.67969,-3.10742 2.0729,-0.73387 5.82013,-2.30079 8.32813,-3.48242 l 4.56054,-2.14844 v -6.61523 c 0,-5.23936 -0.29878,-6.61329 -1.43945,-6.61329 -0.96989,0 -1.43945,0.9691 -1.43945,2.97071 0,4.47234 -3.42962,8.43709 -9.98242,11.53711 -6.34811,3.00319 -9.43035,3.44913 -10.85547,1.57226 -0.50114,-0.66 -3.00348,-6.16823 -5.5625,-12.24023 -2.55902,-6.072 -4.99097,-11.49463 -5.4043,-12.04883 -0.41334,-0.55419 -1.03728,-2.78398 -1.38477,-4.95703 -0.59513,-3.72174 -0.45514,-4.04206 2.39063,-5.51367 1.66159,-0.85924 2.77457,-1.95998 2.47461,-2.44532 -0.14756,-0.23874 -0.40459,-0.36979 -0.82422,-0.38085 z m -55.20117,12.85546 c -0.31716,0.0205 -0.81803,0.31217 -1.27735,0.77149 -0.76984,0.76984 -3.68645,0.93053 -9.44921,0.52148 -9.50066,-0.67438 -12.99864,0.617 -16.35157,6.03125 -4.6718,7.54395 -1.25832,12.98628 12.41407,19.80078 10.4607,5.21376 13.20637,7.82624 12.24804,11.64454 -0.80868,3.22202 -6.40859,5.72278 -11.05664,4.9375 -5.70524,-0.9639 -9.13909,-3.57196 -10.62304,-8.06836 -1.44342,-4.3736 -3.43134,-4.81913 -3.33594,-0.74805 0.033,1.408 0.14123,5.15036 0.24023,8.31836 0.099,3.168 0.42681,5.76172 0.72852,5.76172 0.30172,0 1.20748,-0.66061 2.01367,-1.4668 1.09762,-1.09762 2.34756,-1.27917 4.97266,-0.7207 7.09798,1.51005 14.76995,0.81047 18.55078,-1.69141 6.25769,-4.14089 8.06875,-9.61066 5.08789,-15.375 -1.69094,-3.26992 -6.00809,-6.18762 -14.85352,-10.04297 -7.83536,-3.41511 -10.56054,-5.7939 -10.56054,-9.21679 0,-3.3958 3.13006,-5.64649 7.8496,-5.64649 5.58432,0 8.30027,1.75543 10.6543,6.88672 3.40204,7.41575 4.92026,6.19733 4.0957,-3.28711 -0.37871,-4.356 -0.87332,-8.10714 -1.0996,-8.33594 -0.0566,-0.0572 -0.14233,-0.081 -0.24805,-0.0742 z m -46.20703,1.17774 c -8.96848,-0.23045 -10.56446,-0.048 -10.56446,1.20117 0,0.92394 0.88141,1.4707 2.36719,1.4707 1.3569,0 2.78951,0.79261 3.35938,1.85743 1.45937,2.72684 1.31898,35.83335 -0.15821,37.31054 -0.6336,0.6336 -2.14497,1.15235 -3.35937,1.15235 -2.18239,0 -2.84033,0.97021 -1.53906,2.27148 0.3688,0.3688 5.1944,0.54724 10.72265,0.39844 10.35113,-0.27862 13.28011,-1.50971 7.58008,-3.1875 l -3.13281,-0.92188 v -19.1914 -19.18946 l 2.82617,-0.49023 c 6.14024,-1.06357 2.04039,-2.42104 -8.10156,-2.68164 z m -2.58789,64.09765 c 0.23151,0.0514 0.46407,0.0986 0.69726,0.14258 0.14033,-0.004 0.27967,-0.009 0.41992,-0.0137 -0.10783,-0.0135 -0.21628,-0.0261 -0.32421,-0.0391 -0.26436,-0.0356 -0.52817,-0.0647 -0.79297,-0.0899 z" />
    </a>
    <circle
       style="display:inline;fill:none;fill-opacity:1;stroke:#0d67d9;stroke-width:17.7638;stroke-linejoin:round;stroke-dasharray:none;stroke-opacity:1"
       id="path5"
       cx="319.19965"
       cy="313.543"
       r="286.92413" />
  </g>
</svg>
